<?xml version="1.0" encoding="UTF-8" standalone="no"?>
<svg width="93px" height="100px" viewBox="0 0 93 100" version="1.1" xmlns="http://www.w3.org/2000/svg" xmlns:xlink="http://www.w3.org/1999/xlink" xmlns:sketch="http://www.bohemiancoding.com/sketch/ns">
    <!-- Generator: Sketch Beta 3.4 (15009) - http://www.bohemiancoding.com/sketch -->
    <title>Shape</title>
    <desc>Created with Sketch Beta.</desc>
    <defs></defs>
    <g id="Page-1" stroke="none" stroke-width="1" fill="none" fill-rule="evenodd" sketch:type="MSPage">
        <path d="M91.5,71 C91,69.8 90.5,68.5 90,67.4 C89.2,65.6 88.4,63.9 87.7,62.3 L87.6,62.2 C80.7,47.2 73.3,32 65.5,17 L65.2,16.4 C64.4,14.9 63.6,13.3 62.8,11.7 C61.8,9.9 60.8,8 59.2,6.2 C56,2.2 51.4,0 46.5,0 C41.5,0 37,2.2 33.7,6 C32.2,7.8 31.1,9.7 30.1,11.5 C29.3,13.1 28.5,14.7 27.7,16.2 L27.4,16.8 C19.7,31.8 12.2,47 5.3,62 L5.2,62.2 C4.5,63.8 3.7,65.5 2.9,67.3 C2.4,68.4 1.9,69.6 1.4,70.9 C0.1,74.6 -0.3,78.1 0.2,81.7 C1.3,89.2 6.3,95.5 13.2,98.3 C15.8,99.4 18.5,99.9 21.3,99.9 C22.1,99.9 23.1,99.8 23.9,99.7 C27.2,99.3 30.6,98.2 33.9,96.3 C38,94 41.9,90.7 46.3,85.9 C50.7,90.7 54.7,94 58.7,96.3 C62,98.2 65.4,99.3 68.7,99.7 C69.5,99.8 70.5,99.9 71.3,99.9 C74.1,99.9 76.9,99.4 79.4,98.3 C86.4,95.5 91.3,89.1 92.4,81.7 C93.2,78.2 92.8,74.7 91.5,71 L91.5,71 Z M46.4,76.2 C41,69.4 37.5,63 36.3,57.6 C35.8,55.3 35.7,53.3 36,51.5 C36.2,49.9 36.8,48.5 37.6,47.3 C39.5,44.6 42.7,42.9 46.4,42.9 C50.1,42.9 53.4,44.5 55.2,47.3 C56,48.5 56.6,49.9 56.8,51.5 C57.1,53.3 57,55.4 56.5,57.6 C55.3,62.9 51.8,69.3 46.4,76.2 L46.4,76.2 Z M86.3,80.9 C85.6,86.1 82.1,90.6 77.2,92.6 C74.8,93.6 72.2,93.9 69.6,93.6 C67.1,93.3 64.6,92.5 62,91 C58.4,89 54.8,85.9 50.6,81.3 C57.2,73.2 61.2,65.8 62.7,59.2 C63.4,56.1 63.5,53.3 63.2,50.7 C62.8,48.2 61.9,45.9 60.5,43.9 C57.4,39.4 52.2,36.8 46.4,36.8 C40.6,36.8 35.4,39.5 32.3,43.9 C30.9,45.9 30,48.2 29.6,50.7 C29.2,53.3 29.3,56.2 30.1,59.2 C31.6,65.8 35.7,73.3 42.2,81.4 C38.1,86 34.4,89.1 30.8,91.1 C28.2,92.6 25.7,93.4 23.2,93.7 C20.5,94 17.9,93.6 15.6,92.7 C10.7,90.7 7.2,86.2 6.5,81 C6.2,78.5 6.4,76 7.4,73.2 C7.7,72.2 8.2,71.2 8.7,70 C9.4,68.4 10.2,66.7 11,65 L11.1,64.8 C18,49.9 25.4,34.7 33.1,19.9 L33.4,19.3 C34.2,17.8 35,16.2 35.8,14.7 C36.6,13.1 37.5,11.6 38.6,10.3 C40.7,7.9 43.5,6.6 46.6,6.6 C49.7,6.6 52.5,7.9 54.6,10.3 C55.7,11.6 56.6,13.1 57.4,14.7 C58.2,16.2 59,17.8 59.8,19.3 L60.1,19.9 C67.7,34.8 75.1,50 82,64.9 L82,65 C82.8,66.6 83.5,68.4 84.3,70 C84.8,71.2 85.3,72.2 85.6,73.2 C86.4,75.8 86.7,78.3 86.3,80.9 L86.3,80.9 Z" id="Shape" fill="#000000" sketch:type="MSShapeGroup"></path>
    </g>
</svg>