<?xml version="1.0" encoding="UTF-8" standalone="no"?>
<svg width="34px" height="40px" viewBox="0 0 34 40" version="1.1" xmlns="http://www.w3.org/2000/svg" xmlns:xlink="http://www.w3.org/1999/xlink" xmlns:sketch="http://www.bohemiancoding.com/sketch/ns">
    <!-- Generator: Sketch Beta 3.4 (15009) - http://www.bohemiancoding.com/sketch -->
    <title>db</title>
    <desc>Created with Sketch Beta.</desc>
    <defs></defs>
    <g id="Page-1" stroke="none" stroke-width="1" fill="none" fill-rule="evenodd" sketch:type="MSPage">
        <g id="Desktop-Copy" sketch:type="MSArtboardGroup" transform="translate(-746.000000, -636.000000)" fill-opacity="1.0" fill="#000000">
            <g id="Group" sketch:type="MSLayerGroup" transform="translate(464.000000, 472.000000)">
                <g transform="translate(61.000000, 61.000000)" id="PG-+-Page-1" sketch:type="MSShapeGroup">
                    <g transform="translate(221.000000, 103.000000)">
                        <path d="M16.8039511,0 C7.52465778,0 0.00348444444,3.34310667 0.00348444444,7.4676 L0.00348444444,13.7683467 C-0.00435555556,13.7683467 0.00348444444,13.8147333 0.00348444444,14.0009333 C0.00348444444,14.19236 0.0315777778,14.3962 0.0622844444,14.5850133 C0.0799244444,14.3681067 0.0675111111,14.11788 0.121084444,14.0009333 C1.15465778,17.54788 8.23679111,20.5342667 16.8039511,20.5342667 C25.3711111,20.5342667 32.4532444,17.54788 33.4868178,14.0009333 C33.5377778,14.11788 33.5279778,14.3681067 33.5456178,14.5850133 C33.5658711,14.3962 33.6044178,14.1949733 33.6044178,14.0009333 L33.6044178,7.4676 C33.6044178,3.34310667 26.0832444,0 16.8039511,0 L16.8039511,0 Z M0.121084444,15.8662 C0.0315777778,16.1673867 0.00348444444,16.49144 0.00348444444,16.8004667 L0.00348444444,23.1012133 C-0.00435555556,23.1012133 0.00348444444,23.1476 0.00348444444,23.3338 C0.00348444444,23.5252267 0.0315777778,23.7290667 0.0622844444,23.91788 C0.0799244444,23.7009733 0.0675111111,23.4514 0.121084444,23.3338 C1.15465778,26.8814 8.23679111,29.8671333 16.8039511,29.8671333 C25.3711111,29.8671333 32.4532444,26.8814 33.4868178,23.3338 C33.5377778,23.4514 33.5279778,23.7009733 33.5456178,23.91788 C33.5658711,23.7290667 33.6044178,23.52784 33.6044178,23.3338 L33.6044178,16.8004667 C33.6044178,16.4888267 33.5606444,16.17 33.4868178,15.8662 C32.4532444,19.5385867 25.3711111,22.3995333 16.8039511,22.3995333 C8.23679111,22.3995333 1.15465778,19.5385867 0.121084444,15.8662 L0.121084444,15.8662 Z M0.121084444,25.1990667 C0.0315777778,25.5002533 0.00348444444,25.8243067 0.00348444444,26.1333333 L0.00348444444,32.4347333 C-0.00435555556,32.4347333 0.00348444444,32.4804667 0.00348444444,32.6666667 C0.00348444444,32.8659333 0.0315777778,33.0521333 0.0622844444,33.2514 C0.0799244444,33.03384 0.0675111111,32.7842667 0.121084444,32.6666667 C1.15465778,36.2142667 8.23679111,39.2 16.8039511,39.2 C25.3711111,39.2 32.4532444,36.2142667 33.4868178,32.6666667 C33.5377778,32.7842667 33.5279778,33.03384 33.5456178,33.2514 C33.5710978,33.0645467 33.6044178,32.85548 33.6044178,32.6666667 L33.6044178,26.1333333 C33.6044178,25.8216933 33.5606444,25.5028667 33.4868178,25.1990667 C32.4532444,28.8714533 25.3711111,31.7324 16.8039511,31.7324 C8.23679111,31.7324 1.15465778,28.8714533 0.121084444,25.1990667 L0.121084444,25.1990667 Z" id="db"></path>
                    </g>
                </g>
            </g>
        </g>
    </g>
</svg>