<?xml version="1.0" encoding="UTF-8" standalone="no"?>
<svg width="52px" height="20px" viewBox="0 0 52 20" version="1.1" xmlns="http://www.w3.org/2000/svg" xmlns:xlink="http://www.w3.org/1999/xlink" xmlns:sketch="http://www.bohemiancoding.com/sketch/ns">
    <!-- Generator: Sketch Beta 3.4 (15009) - http://www.bohemiancoding.com/sketch -->
    <title>Page 1</title>
    <desc>Created with Sketch Beta.</desc>
    <defs></defs>
    <g id="Page-1" stroke="none" stroke-width="1" fill="none" fill-rule="evenodd" sketch:type="MSPage">
        <g id="Desktop-Copy" sketch:type="MSArtboardGroup" transform="translate(-947.000000, -533.000000)" fill="#2F3132">
            <g id="Group-Copy-3-+-Page-1" sketch:type="MSLayerGroup" transform="translate(884.000000, 472.000000)">
                <g id="Group-Copy-3" sketch:type="MSShapeGroup">
                    <g id="Group" transform="translate(60.000000, 61.000000)">
                        <g id="tech-I-love-+-Page-1">
                            <path d="M53.70436,1.92052 C53.53488,1.84376 49.4438,0 42.08776,0 C38.01112,0 35.79952,0.62624 33.84936,1.18712 C32.24044,1.64464 30.84812,2.03984 28.65096,2.03984 C26.45076,2.03984 25.06148,1.64464 23.45256,1.18712 C21.5024,0.62624 19.2908,0 15.21416,0 C7.85811996,0 3.76703996,1.84376 3.59755996,1.92052 C3.37791996,2.01856 3.23275996,2.23288 3.21451996,2.47 L3.00095996,5.62552 C2.98575996,5.90216 3.15219996,6.16588 3.41971996,6.27304 C3.70167996,6.38248 4.02847996,6.59984 4.07255996,6.69484 C4.11131996,6.80732 4.17971996,7.15464 4.28383996,7.6532 C4.61595996,9.25984 5.23383996,12.25196 5.99383996,14.24392 C6.86631996,16.55052 7.79807996,17.53928 9.96863996,18.47484 C11.26292,19.03268 13.26096,19.38 15.1906,19.38 C17.07312,19.38 18.8272,19.0532 20.25828,18.43912 C23.99292,16.82716 24.88668,14.3868 26.02364,11.29588 C26.18704,10.83912 26.3322,10.4234 26.45988,10.05252 C27.25256,7.78088 27.40076,7.4898 28.65096,7.4898 C29.90116,7.4898 30.0524,7.78088 30.84204,10.05252 C30.97276,10.42644 31.11488,10.83912 31.28132,11.29284 C32.4122,14.3868 33.30292,16.82716 37.0406,18.43912 C38.47472,19.0532 40.2288,19.38 42.11132,19.38 C44.03792,19.38 46.039,19.03268 47.33632,18.47484 C49.50384,17.53928 50.43256,16.55052 51.30808,14.24392 C52.06276,12.26412 52.67988,9.28036 53.01276,7.67752 C53.11916,7.16984 53.1906,6.81036 53.22328,6.70624 C53.27648,6.59984 53.60328,6.38248 53.8822,6.27304 C54.14972,6.16588 54.31616,5.90216 54.30096,5.62552 L54.0874,2.47 C54.06916,2.23288 53.92096,2.01856 53.70436,1.92052 L53.70436,1.92052 Z M22.25936,13.10392 C21.08668,15.52984 18.63112,16.76484 14.95576,16.76484 C12.00848,16.76484 10.20044,16.09984 9.09311996,14.6148 C8.02075996,13.17232 6.72647996,7.02088 7.57311996,5.11784 C8.38327996,3.30144 12.13008,2.65088 15.36844,2.65088 C18.774,2.65088 22.81416,3.35464 23.63952,4.89288 C24.48844,6.47216 23.9724,9.5418 22.25936,13.10392 L22.25936,13.10392 Z M48.2088,14.61252 C47.10148,16.09984 45.29344,16.76484 42.34616,16.76484 C38.6708,16.76484 36.21524,15.52984 35.04256,13.10392 C33.33256,9.5418 32.81348,6.4752 33.65936,4.89288 C34.48776,3.35464 38.52792,2.65392 41.93576,2.65392 C45.1688,2.65392 48.91864,3.30144 49.7288,5.11784 C50.57544,7.02088 49.28116,13.17232 48.2088,14.61252 L48.2088,14.61252 Z" id="Page-1"></path>
                        </g>
                    </g>
                </g>
            </g>
        </g>
    </g>
</svg>