<?xml version="1.0" encoding="UTF-8" standalone="no"?>
<svg width="43px" height="28px" viewBox="0 0 43 28" version="1.1" xmlns="http://www.w3.org/2000/svg" xmlns:xlink="http://www.w3.org/1999/xlink" xmlns:sketch="http://www.bohemiancoding.com/sketch/ns">
    <!-- Generator: Sketch Beta 3.4 (15009) - http://www.bohemiancoding.com/sketch -->
    <title>Page 1</title>
    <desc>Created with Sketch Beta.</desc>
    <defs></defs>
    <g id="Page-1" stroke="none" stroke-width="1" fill="none" fill-rule="evenodd" sketch:type="MSPage">
        <g id="Desktop-Copy" sketch:type="MSArtboardGroup" transform="translate(-812.000000, -96.000000)" fill="#000000">
            <g id="Mask-Copy-3-+-Mostly-self-taught.--+-Page-1" sketch:type="MSLayerGroup" transform="translate(764.000000, 42.000000)">
                <path d="M90.0099867,64.1162133 L69.59332,54.08624 C69.3633467,53.9712533 69.10332,53.9712533 68.8733467,54.08624 L48.45668,64.1162133 C48.17836,64.2462267 48,64.5395733 48,64.8512133 C48,65.1622 48.17836,65.4379067 48.45668,65.5862133 L57.1466667,69.8479067 L57.1466667,76.3328933 C57.1466667,79.3695867 62.3066933,81.6745467 69.1516667,81.6745467 C75.99664,81.6745467 81.1566667,79.38788 81.1566667,76.3328933 L81.1566667,69.9295733 L84.4899733,68.29624 L85.4033333,68.4595733 L85.4033333,70.3528933 C84.4233333,70.7945867 83.7216533,71.72624 83.7216533,72.8212267 C83.7216533,73.5895467 84.08164,74.2912267 84.6199867,74.7479067 L83.77,76.9862267 C83.6066667,77.4095867 83.8183467,77.88456 84.2449733,78.0328667 C84.3416667,78.0655333 84.4409733,78.0812133 84.53832,78.0812133 C84.8649867,78.0812133 85.1759733,77.88456 85.30664,77.5578933 L86.1559733,75.3195733 L86.23764,75.3195733 L86.3683067,75.3195733 L87.1692933,77.42788 C87.2993067,77.7545467 87.6109467,77.9512 87.9376133,77.9512 C88.0343067,77.9512 88.1342667,77.93552 88.23096,77.9022 C88.6549733,77.7388667 88.8692667,77.2645467 88.7059333,76.8562133 L87.8892667,74.7172 C88.4119333,74.26052 88.75428,73.5738667 88.75428,72.82384 C88.75428,71.7138267 88.0343067,70.7821733 87.03928,70.4398267 L87.03928,67.90816 L87.03928,67.90816 C87.0543067,67.7938267 87.0543067,67.67884 87.0236,67.5664667 C87.0085733,67.4031333 86.9269067,67.2548267 86.8276,67.1431067 L90.0126,65.57576 C90.2902667,65.4457467 90.46928,65.1524 90.46928,64.84076 C90.46928,64.5297733 90.2883067,64.2462267 90.0099867,64.1162133 L90.0099867,64.1162133 Z M76.7616933,78.7828933 C74.7357067,79.59956 72.0407067,80.0412133 69.1516667,80.0412133 C66.2600133,80.0412133 63.5650133,79.59956 61.54164,78.7828933 C59.8083467,78.0812133 58.78,77.1645867 58.78,76.3328933 L58.78,76.20288 C59.3516667,76.6772 60.0533467,77.1012133 60.9033333,77.4762267 C63.12336,78.4712533 66.0483333,79.0128667 69.1516667,79.0128667 C72.255,79.0128667 75.1799733,78.4738667 77.4,77.4762267 C78.2499867,77.1012133 78.9516667,76.65956 79.5233333,76.20288 L79.5233333,76.3328933 C79.5233333,77.1645867 78.4949867,78.0812133 76.7616933,78.7828933 L76.7616933,78.7828933 Z M79.5233333,72.24956 L79.5233333,73.2145333 C79.5233333,75.18956 75.26164,77.39456 69.1516667,77.39456 C63.0416933,77.39456 58.78,75.18956 58.78,73.2145333 L58.78,70.6495467 L68.8733467,75.5978933 C68.9883333,75.64624 69.10332,75.67956 69.2333333,75.67956 C69.3633467,75.67956 69.4783333,75.64624 69.59332,75.5978933 L79.5233333,70.71292 L79.5233333,72.24956 Z M86.2350267,73.7045333 C85.7450267,73.7045333 85.3523733,73.3112267 85.3523733,72.8212267 C85.3523733,72.3312267 85.7450267,71.93792 86.2350267,71.93792 C86.7250267,71.93792 87.1183333,72.3312267 87.1183333,72.8212267 C87.1183333,73.3112267 86.71,73.7045333 86.2350267,73.7045333 L86.2350267,73.7045333 Z M84.2449733,66.58124 L69.36596,64.0345467 C68.9243067,63.95288 68.5009467,64.2638667 68.41928,64.7029067 C68.3376133,65.14456 68.6486,65.56792 69.08764,65.6495867 L81.7309467,67.82192 L69.2333333,73.96456 L50.66168,64.8512133 L69.2333333,55.7378667 L87.8049867,64.8512133 L84.2449733,66.58124 Z" id="Page-1" sketch:type="MSShapeGroup"></path>
            </g>
        </g>
    </g>
</svg>