<?xml version="1.0" encoding="UTF-8" standalone="no"?>
<svg width="45px" height="20px" viewBox="0 0 45 20" version="1.1" xmlns="http://www.w3.org/2000/svg" xmlns:xlink="http://www.w3.org/1999/xlink" xmlns:sketch="http://www.bohemiancoding.com/sketch/ns">
    <!-- Generator: Sketch Beta 3.4 (15009) - http://www.bohemiancoding.com/sketch -->
    <title>Page 1</title>
    <desc>Created with Sketch Beta.</desc>
    <defs></defs>
    <g id="Page-1" stroke="none" stroke-width="1" fill="none" fill-rule="evenodd" sketch:type="MSPage">
        <g id="Desktop-Copy" sketch:type="MSArtboardGroup" transform="translate(-527.000000, -533.000000)" fill="#000000">
            <g id="Group" sketch:type="MSLayerGroup" transform="translate(464.000000, 472.000000)">
                <g transform="translate(61.000000, 61.000000)" id="tech-I-love-+-Page-1" sketch:type="MSShapeGroup">
                    <g>
                        <path d="M44.776,6.06157212 C43.6093333,2.11623878 42.276,0.173572118 40.776,0.00690545147 C40.388,-0.0477612152 40.1093333,0.228238785 40.0546667,0.618905451 C40,1.00690545 40.276,1.28557212 40.6666667,1.34023878 C41,1.39490545 42.112,1.78557212 43.388,6.06157212 C42.8333333,5.84023878 42.2213333,5.72823878 41.6093333,5.72823878 L31.7213333,5.72823878 C29.276,5.72823878 27.276,7.56157212 26.9426667,9.89490545 C26.776,9.84023878 26.5546667,9.84023878 26.3306667,9.84023878 L22.1093333,9.84023878 C21.888,9.84023878 21.7213333,9.89490545 21.4973333,9.89490545 C21.164,7.56157212 19.164,5.72823878 16.7186667,5.72823878 L6.83333333,5.72823878 C6.22133333,5.72823878 5.612,5.84023878 5.05466667,6.06157212 C6.388,1.78290545 7.5,1.34023878 7.776,1.34023878 C8.164,1.28557212 8.388,1.00690545 8.388,0.618905451 C8.33333333,0.230905451 8.05466667,0.00690545147 7.66666667,0.00690545147 C6.10933333,0.170905451 4.83333333,2.11623878 3.66666667,6.06157212 C3.55466667,6.44957212 3.44533333,6.89490545 3.33333333,7.28290545 C2.5,8.17090545 2,9.33757212 2,10.6162388 L2,15.0615721 C2,17.7282388 4.16666667,19.8949055 6.83333333,19.8949055 L16.7213333,19.8949055 C19.388,19.8949055 21.5546667,17.7282388 21.5546667,15.0615721 L21.5546667,11.3949055 C21.7213333,11.2829055 21.888,11.2282388 22.1093333,11.2282388 L26.3306667,11.2282388 C26.552,11.2282388 26.7186667,11.2829055 26.8853333,11.3949055 L26.8853333,15.0615721 C26.8853333,17.7282388 29.052,19.8949055 31.7186667,19.8949055 L41.6066667,19.8949055 C44.2733333,19.8949055 46.44,17.7282388 46.44,15.0615721 L46.44,10.6162388 C46.44,9.33757212 45.94,8.17090545 45.1066667,7.28290545 C45,6.89490545 44.888,6.44957212 44.776,6.06157212 L44.776,6.06157212 Z M19.4426667,15.0042388 C19.4426667,16.5042388 18.2213333,17.7255721 16.7213333,17.7255721 L6.83333333,17.7255721 C5.33333333,17.7255721 4.112,16.5042388 4.112,15.0042388 L4.112,10.5589055 C4.112,9.05890545 5.33333333,7.83757212 6.83333333,7.83757212 L16.7213333,7.83757212 C18.2213333,7.83757212 19.4426667,9.05890545 19.4426667,10.5589055 L19.4426667,15.0042388 Z M44.3333333,15.0042388 C44.3333333,16.5042388 43.112,17.7255721 41.612,17.7255721 L31.7213333,17.7255721 C30.2213333,17.7255721 29,16.5042388 29,15.0042388 L29,10.5589055 C29,9.05890545 30.2213333,7.83757212 31.7213333,7.83757212 L41.6093333,7.83757212 C43.1093333,7.83757212 44.3306667,9.05890545 44.3306667,10.5589055 L44.3306667,15.0042388 L44.3333333,15.0042388 Z" id="Page-1"></path>
                    </g>
                </g>
            </g>
        </g>
    </g>
</svg>