<?xml version="1.0" encoding="UTF-8" standalone="no"?>
<svg width="43px" height="41px" viewBox="0 0 43 41" version="1.1" xmlns="http://www.w3.org/2000/svg" xmlns:xlink="http://www.w3.org/1999/xlink" xmlns:sketch="http://www.bohemiancoding.com/sketch/ns">
    <!-- Generator: Sketch Beta 3.4 (15009) - http://www.bohemiancoding.com/sketch -->
    <title>il</title>
    <desc>Created with Sketch Beta.</desc>
    <defs></defs>
    <g id="Page-1" stroke="none" stroke-width="1" fill="none" fill-rule="evenodd" sketch:type="MSPage">
        <g id="Desktop-Copy" sketch:type="MSArtboardGroup" transform="translate(-1164.000000, -635.000000)" fill-opacity="1.0" fill="#000000">
            <g id="Group-Copy-3-+-Page-1" sketch:type="MSLayerGroup" transform="translate(884.000000, 472.000000)">
                <path d="M319.906133,186.940547 C319.5364,186.940547 319.1886,187.0264 318.875267,187.175547 L311.26252,179.565307 C311.69304,178.919213 311.923027,178.16032 311.923027,177.364453 C311.923027,175.164227 310.133893,173.374467 307.93304,173.374467 C307.120253,173.374467 306.363867,173.619493 305.734693,174.038107 L298.121947,166.424733 C298.271093,166.1114 298.356947,165.764227 298.356947,165.394493 C298.356947,164.072227 297.28472,163 295.96308,163 C294.640813,163 293.568587,164.072227 293.568587,165.394493 C293.568587,166.716133 294.640813,167.78836 295.96308,167.78836 C296.332187,167.78836 296.679987,167.702507 296.99332,167.55336 L302.467253,173.02416 C300.410533,172.20448 298.210307,171.77584 295.96308,171.77584 C292.66556,171.77584 289.470813,172.6914 286.687787,174.42476 C285.977773,173.771147 285.027747,173.37196 283.989987,173.37196 C281.789133,173.374467 280,175.164227 280,177.364453 C280,179.565307 281.789133,181.35444 283.989987,181.35444 C286.19084,181.35444 287.979973,179.565307 287.979973,177.364453 C287.979973,176.779773 287.85276,176.22392 287.62528,175.72196 C290.12944,174.184747 293.000827,173.374467 295.96308,173.374467 C298.9222,173.374467 301.793587,174.187253 304.297747,175.724467 C304.070267,176.226427 303.943053,176.78228 303.943053,177.364453 C303.943053,179.565307 305.732187,181.35444 307.93304,181.35444 C308.50832,181.35444 309.06668,181.229733 309.575533,180.999747 C311.112747,183.503907 311.923027,186.375293 311.923027,189.337547 C311.923027,191.616107 311.45804,193.805053 310.537467,195.85112 C310.214733,195.765267 309.87696,195.7214 309.52916,195.7214 C307.328307,195.7214 305.539173,197.51116 305.539173,199.711387 C305.539173,201.91224 307.328307,203.702 309.52916,203.702 C311.730013,203.702 313.519147,201.91224 313.519147,199.711387 C313.519147,198.4286 312.910027,197.288067 311.96752,196.55612 C312.983347,194.302 313.519147,191.82416 313.519147,189.33504 C313.519147,187.087813 313.091133,184.88696 312.270827,182.830867 L317.744133,188.304173 C317.594987,188.617507 317.509133,188.965307 317.509133,189.33504 C317.509133,190.65668 318.58136,191.728907 319.903627,191.728907 C321.225267,191.728907 322.3,190.659187 322.3,189.33504 C322.3,188.012773 321.227773,186.940547 319.906133,186.940547 L319.906133,186.940547 Z M283.989987,179.758947 C282.670853,179.758947 281.59612,178.684213 281.59612,177.364453 C281.59612,176.04532 282.670853,174.970587 283.989987,174.970587 C285.309747,174.970587 286.38448,176.04532 286.38448,177.364453 C286.38448,178.684213 285.312253,179.758947 283.989987,179.758947 L283.989987,179.758947 Z M309.52916,202.10588 C308.210027,202.10588 307.135293,201.031147 307.135293,199.711387 C307.135293,198.392253 308.210027,197.31752 309.52916,197.31752 C310.84892,197.31752 311.923027,198.392253 311.923027,199.711387 C311.925533,201.031147 310.8508,202.10588 309.52916,202.10588 L309.52916,202.10588 Z M305.539173,177.364453 C305.539173,176.04532 306.613907,174.970587 307.93304,174.970587 C309.2528,174.970587 310.327533,176.04532 310.327533,177.364453 C310.327533,178.003653 310.077493,178.60588 309.62692,179.058333 C309.174467,179.511413 308.574747,179.758947 307.93304,179.758947 C306.613907,179.758947 305.539173,178.684213 305.539173,177.364453 L305.539173,177.364453 Z" id="il" sketch:type="MSShapeGroup"></path>
            </g>
        </g>
    </g>
</svg>