<?xml version="1.0" encoding="UTF-8" standalone="no"?>
<svg width="21px" height="40px" viewBox="0 0 21 40" version="1.1" xmlns="http://www.w3.org/2000/svg" xmlns:xlink="http://www.w3.org/1999/xlink" xmlns:sketch="http://www.bohemiancoding.com/sketch/ns">
    <!-- Generator: Sketch Beta 3.4 (15009) - http://www.bohemiancoding.com/sketch -->
    <title>ios</title>
    <desc>Created with Sketch Beta.</desc>
    <defs></defs>
    <g id="Page-1" stroke="none" stroke-width="1" fill="none" fill-rule="evenodd" sketch:type="MSPage">
        <g id="Desktop-Copy" sketch:type="MSArtboardGroup" transform="translate(-528.000000, -636.000000)" fill-opacity="0.35" fill="#000000">
            <g id="Group" sketch:type="MSLayerGroup" transform="translate(464.000000, 472.000000)">
                <g transform="translate(61.000000, 61.000000)" id="iOS-+-Page-1" sketch:type="MSShapeGroup">
                    <g transform="translate(2.000000, 103.000000)">
                        <path d="M18.24,0 L4.13546667,0 C2.40426667,0 1,1.40426667 1,3.13546667 L1,36.8666667 C1,38.5957333 2.40426667,40 4.13546667,40 L18.2421333,40 C19.9733333,40 21.3770667,38.5957333 21.3770667,36.8645333 L21.3770667,3.13546667 C21.3754667,1.40426667 19.9712,0 18.24,0 L18.24,0 Z M9.64586667,3.3248 L12.7296,3.3248 C12.9605333,3.3248 13.1461333,3.51253333 13.1461333,3.74186667 C13.1461333,3.9728 12.9584,4.1584 12.7296,4.1584 L9.64586667,4.1584 C9.41493333,4.1584 9.22933333,3.97066667 9.22933333,3.74186667 C9.22933333,3.51253333 9.41493333,3.3248 9.64586667,3.3248 L9.64586667,3.3248 Z M7.85013333,3.16693333 C8.12533333,3.16693333 8.34826667,3.38933333 8.34826667,3.66453333 C8.34826667,3.93973333 8.12533333,4.16266667 7.85013333,4.16266667 C7.57546667,4.16266667 7.35253333,3.93973333 7.35253333,3.66453333 C7.35253333,3.38933333 7.57546667,3.16693333 7.85013333,3.16693333 L7.85013333,3.16693333 Z M11.1877333,38.3082667 C10.1066667,38.3082667 9.22933333,37.4314667 9.22933333,36.3498667 C9.22933333,35.2666667 10.1066667,34.3914667 11.1877333,34.3914667 C12.2688,34.3914667 13.1461333,35.2688 13.1461333,36.3498667 C13.1461333,37.4314667 12.2688,38.3082667 11.1877333,38.3082667 L11.1877333,38.3082667 Z M19.8085333,32.9957333 L2.56906667,32.9957333 L2.56906667,7.00426667 L19.8085333,7.00426667 L19.8085333,32.9957333 Z" id="ios"></path>
                    </g>
                </g>
            </g>
        </g>
    </g>
</svg>