<?xml version="1.0" encoding="UTF-8" standalone="no"?>
<svg width="25px" height="41px" viewBox="0 0 25 41" version="1.1" xmlns="http://www.w3.org/2000/svg" xmlns:xlink="http://www.w3.org/1999/xlink" xmlns:sketch="http://www.bohemiancoding.com/sketch/ns">
    <!-- Generator: Sketch Beta 3.4 (15009) - http://www.bohemiancoding.com/sketch -->
    <title>ld</title>
    <desc>Created with Sketch Beta.</desc>
    <defs></defs>
    <g id="Page-1" stroke="none" stroke-width="1" fill="none" fill-rule="evenodd" sketch:type="MSPage">
        <g id="Desktop-Copy" sketch:type="MSArtboardGroup" transform="translate(-338.000000, -634.000000)" fill-opacity="1.0" fill="#000000">
            <g id="Group-Copy-+-Page-1" sketch:type="MSLayerGroup" transform="translate(38.000000, 472.000000)">
                <g id="Group-Copy" sketch:type="MSShapeGroup">
                    <g id="Group" transform="translate(54.000000, 85.000000)">
                        <g id="iOS-+-Page-1" transform="translate(0.000000, 77.000000)">
                            <g id="stage-+-Page-1" transform="translate(246.000000, 0.000000)">
                                <path d="M12.1304905,40.6 C11.0764371,40.6 10.1430238,40.0865067 9.63494381,39.3278667 L14.6252638,39.3278667 C14.1148638,40.0865067 13.1938238,40.6 12.1304905,40.6 L12.1304905,40.6 Z M16.2716905,37.3922133 L7.99161047,37.3922133 C7.66526381,37.3922133 7.40001047,36.9568267 7.40001047,36.43096 C7.40001047,35.90896 7.66835714,35.4859467 7.99161047,35.4859467 L16.2716905,35.4859467 C16.5918505,35.4859467 16.8640638,35.90896 16.8640638,36.43096 C16.8609705,36.9568267 16.5918505,37.3922133 16.2716905,37.3922133 L16.2716905,37.3922133 Z M16.2716905,33.71888 L7.99161047,33.71888 C7.66526381,33.71888 7.40001047,33.2865867 7.40001047,32.77 C7.40001047,32.2325333 7.66835714,31.8157067 7.99161047,31.8157067 L16.2716905,31.8157067 C16.5918505,31.8157067 16.8640638,32.2356267 16.8640638,32.77 C16.8609705,33.2834933 16.5918505,33.71888 16.2716905,33.71888 L16.2716905,33.71888 Z M19.8151038,21.87064 C18.7339838,24.4025333 16.5585971,29.6434133 16.5585971,29.6434133 L7.69851714,29.6434133 C7.69851714,29.6434133 5.52081047,24.4025333 4.44510381,21.87064 C2.99819714,18.4757067 0.153103808,15.4512 0.00771714096,11.3223733 C-0.249029526,3.85429333 5.94382381,0.0456266667 12.1304905,0 C18.3140638,0.0456266667 24.5069171,3.85429333 24.2501705,11.31928 C24.1109705,15.4512 21.2596905,18.4757067 19.8151038,21.87064 L19.8151038,21.87064 Z" id="ld"></path>
                            </g>
                        </g>
                    </g>
                </g>
            </g>
        </g>
    </g>
</svg>