<?xml version="1.0" encoding="UTF-8" standalone="no"?>
<svg width="38px" height="38px" viewBox="0 0 38 38" version="1.1" xmlns="http://www.w3.org/2000/svg" xmlns:xlink="http://www.w3.org/1999/xlink" xmlns:sketch="http://www.bohemiancoding.com/sketch/ns">
    <!-- Generator: Sketch Beta 3.4 (15009) - http://www.bohemiancoding.com/sketch -->
    <title>piano</title>
    <desc>Created with Sketch Beta.</desc>
    <defs></defs>
    <g id="Page-1" stroke="none" stroke-width="1" fill="none" fill-rule="evenodd" sketch:type="MSPage">
        <g id="Desktop-Copy" sketch:type="MSArtboardGroup" transform="translate(-219.000000, -637.000000)" fill-opacity="1.0" fill="#000000">
            <g id="Group-Copy-+-Page-1" sketch:type="MSLayerGroup" transform="translate(38.000000, 472.000000)">
                <g id="Group-Copy" sketch:type="MSShapeGroup">
                    <g id="Group" transform="translate(54.000000, 85.000000)">
                        <g id="iOS-+-Page-1" transform="translate(0.000000, 77.000000)">
                            <g id="playing-piano-+-Page-1" transform="translate(124.000000, 3.000000)">
                                <path d="M3,0 L3,38 L41,38 L41,0 L3,0 Z M4.52,36.48 L4.52,1.52 L9.84,1.52 L9.84,25.84 L12.12,25.84 L12.12,36.48 L4.52,36.48 Z M13.64,36.48 L13.64,25.84 L15.92,25.84 L15.92,1.52 L18.96,1.52 L18.96,25.84 L21.24,25.84 L21.24,36.48 L13.64,36.48 Z M22.76,36.48 L22.76,25.84 L25.04,25.84 L25.04,1.52 L28.08,1.52 L28.08,25.84 L30.36,25.84 L30.36,36.48 L22.76,36.48 Z M39.48,36.48 L31.88,36.48 L31.88,25.84 L34.16,25.84 L34.16,1.52 L39.48,1.52 L39.48,36.48 Z" id="piano"></path>
                            </g>
                        </g>
                    </g>
                </g>
            </g>
        </g>
    </g>
</svg>