<?xml version="1.0" encoding="UTF-8" standalone="no"?>
<svg width="39px" height="38px" viewBox="0 0 39 38" version="1.1" xmlns="http://www.w3.org/2000/svg" xmlns:xlink="http://www.w3.org/1999/xlink" xmlns:sketch="http://www.bohemiancoding.com/sketch/ns">
    <!-- Generator: Sketch Beta 3.4 (15009) - http://www.bohemiancoding.com/sketch -->
    <title>ps</title>
    <desc>Created with Sketch Beta.</desc>
    <defs></defs>
    <g id="Page-1" stroke="none" stroke-width="1" fill="none" fill-rule="evenodd" sketch:type="MSPage">
        <g id="Desktop-Copy" sketch:type="MSArtboardGroup" transform="translate(-948.000000, -636.000000)" fill-opacity="0.35" fill="#000000">
            <g id="Group-Copy-3-+-Page-1" sketch:type="MSLayerGroup" transform="translate(884.000000, 472.000000)">
                <g id="Group-Copy-3" sketch:type="MSShapeGroup">
                    <g id="Group" transform="translate(60.000000, 61.000000)">
                        <g id="iOS-+-Page-1" transform="translate(0.000000, 103.000000)">
                            <path d="M42.33592,28.21196 L40.35232,20.7784 C40.29304,20.47288 40.21324,20.17876 40.11824,19.89984 L40.07036,19.7182 C40.04984,19.65588 40.02324,19.60268 39.99892,19.54948 C38.73124,16.44716 35.38572,16.89556 32.54484,14.05392 L23.09804,4.60484 L23.09804,4.72644 C23.09804,2.11964 20.9784,0 18.3716,0 L16.54912,0 C13.94536,0 11.82268,2.11964 11.82268,4.72644 L11.82268,14.80556 L5.67428,20.95016 C4.59356,22.03088 4,23.46804 4,24.99412 C4,26.52248 4.59356,27.95964 5.67428,29.04036 L12.71036,36.0734 C13.79108,37.15412 15.22824,37.74768 16.7566,37.74768 C18.28572,37.74768 19.71984,37.15412 20.80056,36.0734 L37.4666,19.4066 C37.80252,19.59356 38.61268,20.30644 38.68412,20.49644 L36.76588,28.17016 C36.43376,29.1118 36.2582,30.18948 36.2582,31.2968 C36.2582,34.52984 38.43788,35.6668 39.54824,35.6668 C40.67608,35.6668 42.83752,34.5268 42.83752,31.2968 C42.83144,30.19252 42.65588,29.11484 42.33592,28.21196 L42.33592,28.21196 Z M13.31304,4.72644 C13.31304,2.945 14.76464,1.4934 16.54608,1.4934 L18.36856,1.4934 C20.15304,1.4934 21.6016,2.945 21.6016,4.72644 L21.6016,5.02056 L13.31304,13.31216 L13.31304,4.72644 Z M19.7434,35.01928 C18.94464,35.81804 17.8852,36.25732 16.75356,36.25732 C15.62572,36.25732 14.56324,35.81804 13.76448,35.01928 L6.73144,27.98624 C5.93268,27.18824 5.4934,26.125 5.4934,24.99716 C5.4934,23.86856 5.93268,22.80608 6.73144,22.00732 L21.60768,7.13108 L21.60768,16.34304 C20.55964,16.6668 19.79356,17.6282 19.79356,18.7834 C19.79356,19.11856 19.86196,19.43928 19.97824,19.7334 C20.17052,20.21144 20.49732,20.62412 20.91912,20.90912 C21.3318,21.18804 21.82732,21.35448 22.3616,21.35448 C23.78052,21.35448 24.93268,20.20536 24.93268,18.7834 C24.93268,17.65556 24.20232,16.70784 23.19304,16.36052 C23.1634,16.35216 23.13072,16.34608 23.10108,16.33696 L23.10108,6.71536 L35.57572,19.19 L19.7434,35.01928 Z" id="ps"></path>
                        </g>
                    </g>
                </g>
            </g>
        </g>
    </g>
</svg>