<?xml version="1.0" encoding="UTF-8" standalone="no"?>
<svg width="69px" height="37px" viewBox="0 0 69 37" version="1.1" xmlns="http://www.w3.org/2000/svg" xmlns:xlink="http://www.w3.org/1999/xlink" xmlns:sketch="http://www.bohemiancoding.com/sketch/ns">
    <!-- Generator: Sketch Beta 3.4 (15009) - http://www.bohemiancoding.com/sketch -->
    <title>ror</title>
    <desc>Created with Sketch Beta.</desc>
    <defs></defs>
    <g id="Page-1" stroke="none" stroke-width="1" fill="none" fill-rule="evenodd" sketch:type="MSPage">
        <g id="Desktop-Copy" sketch:type="MSArtboardGroup" transform="translate(-624.000000, -635.000000)" fill-opacity="0.45" fill="#000000">
            <g id="Group" sketch:type="MSLayerGroup" transform="translate(464.000000, 472.000000)">
                <g transform="translate(61.000000, 61.000000)" id="Ruby-+-Page-1" sketch:type="MSShapeGroup">
                    <g transform="translate(99.000000, 102.000000)">
                        <g id="ror">
                            <path d="M61.969,32.832 C62.051,32.664 62.102,32.473 62.102,32.273 L62.102,2.082 C62.102,1.367 61.523,0.789 60.809,0.789 L8.188,0.789 C7.473,0.789 6.895,1.367 6.895,2.082 L6.895,32.273 C6.895,32.477 6.941,32.664 7.027,32.832 L0.75,32.832 L0.75,34.922 C0.75,35.633 1.328,36.215 2.047,36.215 L66.957,36.215 C67.672,36.215 68.254,35.637 68.254,34.922 L68.254,32.832 L61.969,32.832 Z M34.5,1.484 C34.781,1.484 35.012,1.715 35.012,1.996 C35.012,2.277 34.781,2.508 34.5,2.508 C34.219,2.508 33.988,2.281 33.988,1.996 C33.988,1.715 34.219,1.484 34.5,1.484 L34.5,1.484 Z M9.105,3.281 L59.891,3.281 L59.891,30.707 L9.105,30.707 L9.105,3.281 Z M38.238,34.523 C38.238,34.809 38.008,35.035 37.727,35.035 L31.27,35.035 C30.988,35.035 30.758,34.805 30.758,34.523 C30.758,34.242 30.988,34.012 31.27,34.012 L37.727,34.012 C38.008,34.012 38.238,34.242 38.238,34.523 L38.238,34.523 Z" id="Fill-1"></path>
                            <path d="M22.756,19.382 C22.756,21.452 24.196,23.18 26.032,23.18 C27.382,23.18 28.246,22.226 28.246,22.226 L28.354,22.712 C28.39,22.874 28.498,23 28.66,23 L29.038,23 C29.218,23 29.38,22.838 29.38,22.658 L29.38,10.742 C29.38,10.562 29.218,10.4 29.038,10.4 L28.48,10.4 C28.3,10.4 28.138,10.562 28.138,10.742 L28.138,16.088 C28.138,16.088 27.4,15.62 26.212,15.62 C24.052,15.62 22.756,17.276 22.756,19.382 L22.756,19.382 Z M24.016,19.4 C24.016,17.96 24.808,16.826 26.374,16.826 C27.364,16.826 28.12,17.258 28.12,17.258 L28.12,20.858 C28.12,20.858 27.454,22.046 26.158,22.046 C24.844,22.046 24.016,20.804 24.016,19.4 L24.016,19.4 Z M31.432,19.4 C31.432,21.47 32.782,23.18 34.96,23.18 C36.202,23.18 37.174,22.694 37.606,22.352 C37.876,22.154 37.804,22.046 37.678,21.884 C37.57,21.74 37.48,21.614 37.372,21.47 C37.228,21.272 37.12,21.362 36.868,21.506 C36.454,21.758 35.842,22.046 35.086,22.046 C33.808,22.046 32.746,20.912 32.674,19.706 L37.858,19.706 C38.02,19.706 38.164,19.58 38.182,19.4 C38.2,19.274 38.218,19.04 38.218,18.914 C38.218,17.024 36.85,15.62 34.96,15.62 C32.782,15.62 31.432,17.366 31.432,19.4 L31.432,19.4 Z M32.692,18.698 C32.818,17.582 33.754,16.718 34.96,16.718 C36.058,16.718 36.922,17.654 36.976,18.698 L32.692,18.698 Z M40.756,22.658 C40.756,22.838 40.918,23 41.098,23 L41.656,23 C41.836,23 41.998,22.838 41.998,22.658 L41.998,16.88 L44.086,16.88 C44.284,16.88 44.428,16.718 44.428,16.538 L44.428,16.142 C44.428,15.944 44.284,15.8 44.086,15.8 L41.998,15.8 L41.998,13.28 C41.998,11.894 42.664,11.336 43.492,11.336 C44.032,11.336 44.572,11.678 44.806,11.858 C44.986,12.002 45.166,12.02 45.274,11.84 L45.562,11.372 C45.634,11.246 45.616,11.066 45.49,10.958 C45.166,10.652 44.5,10.22 43.51,10.22 C41.962,10.22 40.756,11.192 40.756,13.28 L40.756,15.8 L39.658,15.8 C39.46,15.8 39.316,15.944 39.316,16.142 L39.316,16.538 C39.316,16.718 39.46,16.88 39.658,16.88 L40.756,16.88 L40.756,22.658 Z" id="def"></path>
                        </g>
                    </g>
                </g>
            </g>
        </g>
    </g>
</svg>