<?xml version="1.0" encoding="UTF-8" standalone="no"?>
<svg width="37px" height="39px" viewBox="0 0 37 39" version="1.1" xmlns="http://www.w3.org/2000/svg" xmlns:xlink="http://www.w3.org/1999/xlink" xmlns:sketch="http://www.bohemiancoding.com/sketch/ns">
    <!-- Generator: Sketch Beta 3.4 (15009) - http://www.bohemiancoding.com/sketch -->
    <title>sketch</title>
    <desc>Created with Sketch Beta.</desc>
    <defs></defs>
    <g id="Page-1" stroke="none" stroke-width="1" fill="none" fill-rule="evenodd" sketch:type="MSPage">
        <g id="Desktop-Copy" sketch:type="MSArtboardGroup" transform="translate(-1061.000000, -636.000000)" fill-opacity="0.45" fill="#000000">
            <g id="Group-Copy-3-+-Page-1" sketch:type="MSLayerGroup" transform="translate(884.000000, 472.000000)">
                <g id="Group-Copy-3" sketch:type="MSShapeGroup">
                    <g id="Group" transform="translate(60.000000, 61.000000)">
                        <g id="Ruby-+-Page-1" transform="translate(115.000000, 103.000000)">
                            <path d="M38.8002363,9.37066667 C38.7943697,9.34346667 38.7858363,9.32053333 38.7815697,9.29173333 C38.756503,9.1856 38.756503,9.07093333 38.7047697,8.97493333 C38.6503697,8.8752 38.5543697,8.82293333 38.4775697,8.7456 C38.466903,8.73546667 38.466903,8.72053333 38.458903,8.71253333 L29.8546363,0.349866667 C29.6231697,0.126933333 29.3170363,0 29.0002363,0 L11.7879697,0 C11.4690363,0 11.162903,0.126933333 10.9335697,0.349866667 L2.32770299,8.7104 C2.28396966,8.752 2.27970299,8.8144 2.24610299,8.86026667 C2.21303633,8.90613333 2.16290299,8.9248 2.13356966,8.9728 C2.10636966,9.02293333 2.11490299,9.0768 2.09623633,9.12693333 C2.04396966,9.256 2.00663633,9.3792 2.00023633,9.51893333 C1.99810299,9.5872 2.01090299,9.65013333 2.01890299,9.72266667 C2.03383633,9.83146667 2.00450299,9.94186667 2.05036966,10.0437333 C2.07330299,10.0981333 2.12770299,10.1269333 2.15863633,10.1792 C2.16503633,10.1893333 2.16290299,10.2042667 2.17143633,10.2144 L19.3794363,37.6666667 C19.6066363,38.0272 19.9959697,38.2416 20.4210363,38.2416 C20.8418363,38.2416 21.2359697,38.0272 21.4610363,37.6666667 L38.6711697,10.2144 C38.6983697,10.1728 38.694103,10.1205333 38.7170363,10.0768 C38.7234363,10.0624 38.7399697,10.0581333 38.7442363,10.0416 C38.756503,10.0144 38.742103,9.9856 38.7506363,9.9584 C38.8151697,9.76853333 38.831703,9.57493333 38.8002363,9.37066667 L38.8002363,9.37066667 Z M21.6210363,8.33973333 L21.6210363,2.45226667 L22.9191697,2.45226667 L28.8066363,8.34186667 L21.6210363,8.34186667 L21.6210363,8.33973333 Z M19.169303,8.33973333 L12.4066363,8.33973333 L18.2962363,2.45013333 L19.1650363,2.45013333 L19.1650363,8.33973333 L19.169303,8.33973333 Z M9.38796966,10.8122667 L12.377303,21.8853333 L5.43810299,10.8122667 L9.38796966,10.8122667 Z M11.927703,10.8122667 L19.169303,10.8122667 L19.169303,32.7205333 L16.831703,28.9936 L11.927703,10.8122667 Z M21.6210363,10.8122667 L29.2402363,10.8122667 L24.377303,28.3706667 L24.3922363,28.3749333 L21.618903,32.7957333 L21.618903,10.8122667 L21.6210363,10.8122667 Z M31.783703,10.8122667 L35.4023697,10.8122667 L28.9170363,21.1541333 L31.783703,10.8122667 Z M34.562903,8.33973333 L32.273303,8.33973333 L26.3858363,2.45013333 L28.500503,2.45013333 L34.562903,8.33973333 Z M12.287703,2.45226667 L14.8295697,2.45226667 L8.93996966,8.34186667 L6.22956966,8.34186667 L12.287703,2.45226667 Z" id="sketch"></path>
                        </g>
                    </g>
                </g>
            </g>
        </g>
    </g>
</svg>