<?xml version="1.0" encoding="UTF-8" standalone="no"?>
<svg width="43px" height="67px" viewBox="0 0 43 67" version="1.1" xmlns="http://www.w3.org/2000/svg" xmlns:xlink="http://www.w3.org/1999/xlink" xmlns:sketch="http://www.bohemiancoding.com/sketch/ns">
    <!-- Generator: Sketch Beta 3.4 (15009) - http://www.bohemiancoding.com/sketch -->
    <title>Page 1</title>
    <desc>Created with Sketch Beta.</desc>
    <defs></defs>
    <g id="Page-1" stroke="none" stroke-width="1" fill="none" fill-rule="evenodd" sketch:type="MSPage">
        <g sketch:type="MSLayerGroup" fill="#000000">
            <path d="M35.669,0.715 L42.108,0.715 L42.108,66.355 L35.669,66.355 L35.669,0.715 Z" id="Fill-1" sketch:type="MSShapeGroup"></path>
            <path d="M8.807,15.665 L8.807,0.643 L19.501,0.643 L19.501,15.665 L29.164,15.665 L29.164,23.903 L19.501,23.903 L19.501,50.653 C19.501,51.815 19.548,52.818 19.642,53.657 C19.735,54.498 19.954,55.208 20.298,55.79 C20.642,56.371 21.157,56.807 21.847,57.098 C22.534,57.389 23.472,57.534 24.661,57.534 C25.411,57.534 26.162,57.519 26.912,57.485 C27.663,57.454 28.413,57.34 29.164,57.147 L29.164,65.676 C27.975,65.804 26.818,65.933 25.693,66.064 C24.567,66.191 23.409,66.257 22.222,66.257 C19.407,66.257 17.14,65.981 15.42,65.434 C13.699,64.885 12.356,64.076 11.387,63.01 C10.416,61.944 9.76,60.603 9.416,58.987 C9.071,57.374 8.868,55.532 8.807,53.464 L8.807,23.903 L0.738,23.903 L0.738,15.665 L8.807,15.665 Z" id="Fill-2" sketch:type="MSShapeGroup"></path>
        </g>
    </g>
</svg>